<svg xmlns="http://www.w3.org/2000/svg" width="450" height="450" viewBox="0 0 450 450">
  <path d="M125.6 417c-47.9-13.6-85.4-36.9-102.4-67.9-18.9-34.2-9.7-71 22.6-99.5 15.6-13.7 35.4-24.6 57.2-32.8 4.2-1.5 5.4-5.3 5.3-8.6l-.3-7.6c-.4-16.2 7.9-30.4 20-41 4.2-3.7 8.9-7.1 14-10.1l3.2-1.5c4-1.7 5.4-5.2 5.4-8.6v-4.5c0-6.2 2.5-11.8 6.6-15.9 1.8-2 3.5-5 3.8-7.9l.1-1.2.6-3c1-3.4 1.1-6.9.3-10.2l-.5-1.8c-.3-1.1-.3-1.1-.6-3.1-.2-2.8-1.9-5.5-3.7-7.5-3.9-4.3-6.6-9.7-6.6-15.9V57.3c0-12.4 10.1-22.5 22.5-22.5h2.4c2.5 0 5.1.1 7.8.4 3.4.1 4.9-.7 6.5-3.1 3.7-7.3 11.3-12.3 20.1-12.3h2.4c4.9 0 10.6.4 15.9 1.9 5.7 1.7 11 4.7 15.4 9.2 2.4 2.9 5.4 3.6 7.9 4 4.3.1 9 .5 13.4 1.8 5.7 1.7 11.1 4.7 15.5 9.2 4.5 4.7 7.4 10.3 8.8 16.2.6 2.5.9 5.2 1.1 7.9l.1 2.6c.1 3.1 2.1 6.2 4.2 8.2 3.8 4 6.1 9.4 6.1 15.3v11.1c0 6-2.3 11.4-6.2 15.5-1.7 2.5-3.5 4.1-4.1 7l-.1 2.9-.5 4.3c-.3 2.1 1.2 4.1 3.3 5.4 15.9 6.4 29.9 15.7 38.8 27.6l3.2 5.3c1.4 2.4 4.6 3.3 7.6 3.2 28.8-3 56.6 13.6 62.5 44.8 1.5 7.5 1.4 15 .2 22.2-.4 3.6-.4 5.1 2.2 7.3 15.2 14.4 25.7 31.7 28.3 51.3 3.7 27.3-8.8 52.6-31.6 72.7C345 428.9 220.9 444 125.6 417z" fill="#6e4228"/>
  <path d="M60.7 266.5c51.5-45.3 166.9-61.3 257.6-35.5 90.8 25.7 122.6 83.5 71.1 128.8-51.5 45.4-166.9 61.3-257.7 35.5-90.7-25.7-122.5-83.4-71-128.8z" fill="#fff"/>
  <path d="M137.8 374.1c-42.9-12.1-66.9-30.6-75.6-46.5-7-12.6-6.2-27.5 13.1-44.5 43.9-38.7 150.8-55.4 237-30.9 42.9 12.2 66.9 30.7 75.6 46.5 6.9 12.6 6.2 27.6-13.1 44.6-43.9 38.7-150.9 55.3-237 30.8z" fill="#e9ddd7"/>
  <path d="M187.7 346c-21.3-6-34.4-16.4-37.5-27.7-13.1-33.8-19.9-75.6-19.7-117.9-.2-8.1 3.8-16.4 12.4-24 25.7-22.6 83.4-30.6 128.8-17.7 31.6 9 48.9 25.7 47.8 42.7l-.1 3c0 2.5 4.6 4.1 7.1 2.6 2.6-1.6 5.4-2.9 8.3-3.9 22.6-8.1 44.3 2.8 48.3 24.3 4.1 21.4-10.9 45.4-33.5 53.5-10.9 3.9-21.5 3.4-30.1-.5-2.6-1.3-8.3.4-8.9 3-1.1 4.3-2.2 8.6-3.4 12.9-2.2 7.7-4.6 14.9-7.2 21.7-1.2 4.8-4.2 9.4-9.2 13.8C270.2 350 224 356.3 187.7 346zm155.5-82.9c14.8-5.3 23.5-21 21.4-32.2-1.7-8.7-10.1-14.8-23.4-10-14.8 5.3-23.5 21-21.3 32.2 1.6 8.7 10 14.8 23.3 10zm-212.6-62.7h-.1.1z" fill="#fff"/>
  <path d="M183.5 222.7c-20.5-5.9-30.1-14.2-33-19.5-2.1-3.8-1.5-7 4.9-12.6 19.2-16.9 69.6-25.5 111.1-13.7 20.6 5.8 30.2 14.2 33.1 19.4 2 3.8 1.5 7-4.9 12.6-19.2 17-69.7 25.6-111.2 13.8z" fill="#201816"/>
  <path d="M186.2 307.5c4.5-1.1 9-2.5 13.5-4.1 2.9 5.6 5.5 10.5 11.1 11.7 5.3 1.1 8.5-.8 8.4-9.7l-.6-60.8c6.1.6 11.9.9 17.5 1-.4 20.4-.8 40.9-1.1 61.3-.5 18.5-9.4 27.3-23.1 24.2-12.5-2.9-20.8-13.4-25.7-23.6M243 315.4c4.1-3 8.2-6.3 12.4-9.8 2.8 5.7 6.6 9.6 13.7 7.4 5.9-1.9 9.9-7.2 10.2-12.2.4-6-3.3-6.4-9.7-8l-3.6-.9c-10.2-2.9-17.3-9.5-16.8-24 .4-13.6 10.2-24.1 23.7-27 9.6-2.2 15.9-.6 20 7.4-4 4.4-7.9 8.7-11.9 12.8-2.2-4.5-4.8-5.9-9-4.8-4.4 1-7.4 4.8-7.6 9.1-.3 5.3 2.4 7.1 8.5 8.6 1.1.3 2.3.6 3.5.8 11.9 2.4 18.3 4.8 17.3 19.1-1.2 15.1-11.9 30-25.3 34.6-13.1 4.5-21.3-3-25.4-13.1" fill="#6e4228"/>
  <path d="M204.7 107.2c-2.3.1-4 .5-5.1 1-1.2.6-2.1 1.5-3 2.8-.8 1.3-1.3 3-1.7 4.9-.2 1.5-.4 4.1-.4 7.7 0 6-.2 10.1-.8 12.5-.5 2.4-1.5 4.3-2.9 5.7-1.5 1.4-3.6 2.6-6.4 3.4-1.9.5-4.8.8-8.9.8h-2.4v-11.1c3.3 0 5.4-.2 6.5-.6 1-.4 1.7-1 2.2-1.8.5-.8.7-2.1.7-4 0-1.8.2-5.4.4-10.7.2-3.2.6-5.8 1.3-7.7.6-1.9 1.5-3.6 2.7-4.9 1.1-1.3 2.5-2.5 4.3-3.5-2.3-1.5-4-2.9-5-4.4-1.5-2-2.4-4.6-3-7.7-.3-2.2-.5-6.9-.7-14.2 0-2.3-.2-3.9-.6-4.6-.4-.8-1.1-1.4-2.1-1.8-1-.4-3.2-.6-6.7-.6V57.3h2.4c4.2 0 7.4.4 9.6 1 2.2.6 4.1 1.7 5.6 3.3 1.5 1.6 2.5 3.5 3 5.7.6 2.3.8 5.8.8 10.7 0 5.6.3 9.3.7 11 .7 2.5 1.7 4.3 3.1 5.3 1.4 1.1 3.5 1.7 6.4 1.8v11.1zM241.4 92.2c-2.2.1-3.9.5-5 1-1.2.6-2.2 1.5-3 2.8-.8 1.3-1.4 3-1.7 4.9-.3 1.5-.4 4.1-.4 7.7 0 6-.2 10.1-.8 12.5-.5 2.4-1.5 4.3-3 5.7-1.4 1.4-3.5 2.6-6.3 3.4-1.9.5-4.9.8-8.9.8h-2.4v-11.1c3.3 0 5.4-.2 6.4-.6 1-.4 1.8-1 2.3-1.8.4-.8.7-2.1.7-4 0-1.8.1-5.4.4-10.7.1-3.2.6-5.8 1.2-7.7.7-1.9 1.6-3.6 2.7-4.9 1.2-1.3 2.6-2.5 4.4-3.5-2.3-1.5-4-2.9-5-4.4-1.5-2-2.5-4.6-3-7.7-.3-2.2-.6-6.9-.7-14.2-.1-2.3-.3-3.9-.6-4.6-.4-.8-1.1-1.4-2.1-1.8-1-.4-3.3-.6-6.7-.6V42.3h2.4c4.2 0 7.3.4 9.6 1 2.2.6 4 1.7 5.5 3.3 1.6 1.6 2.6 3.5 3.1 5.7.6 2.3.8 5.8.8 10.7 0 5.6.3 9.3.7 11 .7 2.5 1.7 4.3 3.1 5.3 1.4 1.1 3.5 1.7 6.3 1.8v11.1zM278.2 107.2c-2.2.1-3.9.5-5.1 1-1.1.6-2.1 1.5-2.9 2.8-.8 1.3-1.4 3-1.7 4.9-.3 1.5-.4 4.1-.4 7.7 0 6-.3 10.1-.8 12.5-.5 2.4-1.5 4.3-3 5.7-1.4 1.4-3.6 2.6-6.4 3.4-1.8.5-4.8.8-8.8.8h-2.5v-11.1c3.3 0 5.5-.2 6.5-.6 1-.4 1.8-1 2.2-1.8.5-.8.8-2.1.8-4 0-1.8.1-5.4.4-10.7.1-3.2.5-5.8 1.2-7.7.7-1.9 1.6-3.6 2.7-4.9 1.1-1.3 2.6-2.5 4.3-3.5-2.2-1.5-3.9-2.9-5-4.4-1.4-2-2.4-4.6-2.9-7.7-.3-2.2-.6-6.9-.7-14.2-.1-2.3-.3-3.9-.7-4.6-.4-.8-1-1.4-2-1.8-1-.4-3.3-.6-6.8-.6V57.3h2.5c4.1 0 7.3.4 9.5 1 2.3.6 4.1 1.7 5.6 3.3 1.5 1.6 2.6 3.5 3.1 5.7.5 2.3.8 5.8.8 10.7 0 5.6.2 9.3.7 11 .7 2.5 1.7 4.3 3.1 5.3 1.4 1.1 3.5 1.7 6.3 1.8v11.1z" fill="#956f5a"/>
</svg>
