<!DOCTYPE svg PUBLIC "-//W3C//DTD SVG 1.1//EN" "http://www.w3.org/Graphics/SVG/1.1/DTD/svg11.dtd" [
	<!ENTITY ns_flows "http://ns.adobe.com/Flows/1.0/">
]><svg xmlns="http://www.w3.org/2000/svg" width="32" height="32" viewBox="-4 0 32 32" overflow="visible"><path fill-rule="evenodd" clip-rule="evenodd" d="M12 32c-.314 0-.61-.148-.8-.4L2.58 19.438l-.315-.442C.785 16.94 0 14.52 0 12 0 5.383 5.383 0 12 0s12 5.383 12 12c0 2.52-.784 4.94-2.268 7l-.42.582L12.8 31.6c-.19.252-.486.4-.8.4zm0-24c-2.206 0-4 1.794-4 4s1.794 4 4 4 4-1.794 4-4-1.794-4-4-4z"/></svg>