<svg xmlns="http://www.w3.org/2000/svg" viewBox="0 0 20 20"><path d="M10 .4C4.698.4.4 4.698.4 10s4.298 9.6 9.6 9.6 9.6-4.298 9.6-9.6S15.302.4 10 .4zm3.905 7.864c.004.082.005.164.005.244 0 2.5-1.9 5.38-5.38 5.38-1.067 0-2.06-.31-2.897-.85.147.02.298.026.45.026.887 0 1.702-.3 2.35-.81-.828-.015-1.526-.56-1.767-1.31.115.02.233.032.355.032.173 0 .34-.023.5-.066C6.653 10.736 6 9.972 6 9.056v-.023c.255.14.547.227.857.237-.51-.34-.842-.918-.842-1.575 0-.346.093-.672.256-.95C7.207 7.887 8.6 8.64 10.17 8.72c-.032-.138-.048-.282-.048-.43 0-1.044.846-1.892 1.89-1.892.544 0 1.036.23 1.38.598.432-.086.836-.242 1.2-.46-.14.442-.44.813-.83 1.048.383-.047.747-.148 1.086-.3-.253.38-.574.714-.943.98z"/></svg>