<svg xmlns="http://www.w3.org/2000/svg" width="166.7" height="171.014" viewBox="0 0 166.7 171.014"><path fill="#00979D" stroke="#81C9CB" stroke-width=".932" stroke-miterlimit="10" d="M164.203 85.47c0 44.655-36.2 80.854-80.846 80.854-44.66 0-80.86-36.2-80.86-80.854 0-44.645 36.2-80.846 80.86-80.846 44.647 0 80.846 36.2 80.846 80.846z"/><linearGradient id="a" gradientUnits="userSpaceOnUse" x1="2.498" y1="85.271" x2="164.203" y2="85.271" gradientTransform="matrix(1 0 0 -1 0 170.812)"><stop offset=".117" stop-color="#FFF" stop-opacity="0"/><stop offset=".252" stop-color="#C0D1D3" stop-opacity=".153"/><stop offset=".387" stop-color="#91B3B7" stop-opacity=".306"/><stop offset=".52" stop-color="#6D9FA3" stop-opacity=".457"/><stop offset=".65" stop-color="#4D9195" stop-opacity=".604"/><stop offset=".776" stop-color="#30888B" stop-opacity=".746"/><stop offset=".895" stop-color="#148386" stop-opacity=".881"/><stop offset="1" stop-color="#008184"/></linearGradient><linearGradient id="b" gradientUnits="userSpaceOnUse" x1="1.998" y1="85.271" x2="164.703" y2="85.271" gradientTransform="matrix(1 0 0 -1 0 170.812)"><stop offset="0" stop-color="#FFF" stop-opacity="0"/><stop offset=".153" stop-color="#C0D1D3" stop-opacity=".153"/><stop offset=".306" stop-color="#91B3B7" stop-opacity=".306"/><stop offset=".457" stop-color="#6D9FA3" stop-opacity=".457"/><stop offset=".604" stop-color="#4D9195" stop-opacity=".604"/><stop offset=".746" stop-color="#30888B" stop-opacity=".746"/><stop offset=".881" stop-color="#148386" stop-opacity=".881"/><stop offset="1" stop-color="#008184"/></linearGradient><path opacity=".5" fill="url(#a)" stroke="url(#b)" stroke-miterlimit="10" d="M164.203 85.537c0 44.655-36.2 80.854-80.846 80.854-44.66 0-80.86-36.2-80.86-80.853 0-44.645 36.2-80.846 80.86-80.846 44.647.003 80.846 36.202 80.846 80.847z"/><g fill="#FFF"><path d="M114.232 114.383c-1.523 0-3.08-.11-4.615-.338-12.85-1.834-21.444-11.064-26.258-18.16-4.83 7.096-13.423 16.335-26.27 18.167-1.527.22-3.083.328-4.614.328-7.99 0-15.49-2.973-21.133-8.373-5.696-5.444-8.84-12.75-8.84-20.54 0-7.8 3.144-15.096 8.848-20.55 5.638-5.4 13.144-8.365 21.138-8.365 1.523 0 3.074.11 4.602.328 12.846 1.832 21.44 11.064 26.268 18.16 4.815-7.096 13.407-16.325 26.258-18.16 1.533-.22 3.084-.328 4.607-.328 7.99 0 15.496 2.973 21.133 8.365 5.7 5.454 8.837 12.75 8.837 20.55 0 7.79-3.128 15.096-8.83 20.54-5.646 5.4-13.14 8.376-21.13 8.376M89.05 85.47c2.51 4.78 9.913 16.708 22.016 18.44 1.06.147 2.126.228 3.165.228 10.872 0 19.72-8.373 19.72-18.67s-8.846-18.672-19.727-18.672c-1.04 0-2.106.074-3.155.227-12.105 1.73-19.51 13.657-22.018 18.447M52.488 66.8c-10.886 0-19.737 8.372-19.737 18.67 0 10.296 8.848 18.67 19.724 18.67 1.044 0 2.11-.08 3.17-.226C67.747 102.18 75.15 90.26 77.66 85.474c-2.504-4.78-9.913-16.72-22.016-18.442-1.047-.16-2.116-.233-3.156-.233"/><path d="M44.23 82.643h18v5.8h-18zM122.313 82.643h-6.094V76.54h-5.82v6.103h-6.09v5.8h6.09v6.1h5.82v-6.1h6.093"/></g></svg>