<?xml version="1.0" encoding="utf-8"?>
<!-- Generator: Adobe Illustrator 15.1.0, SVG Export Plug-In  -->
<!DOCTYPE svg PUBLIC "-//W3C//DTD SVG 1.1//EN" "http://www.w3.org/Graphics/SVG/1.1/DTD/svg11.dtd" [
	<!ENTITY ns_flows "http://ns.adobe.com/Flows/1.0/">
]>
<svg version="1.1"
	 xmlns="http://www.w3.org/2000/svg" xmlns:xlink="http://www.w3.org/1999/xlink" xmlns:a="http://ns.adobe.com/AdobeSVGViewerExtensions/3.0/"
	 x="0px" y="0px" width="32px" height="32px" viewBox="-4 0 32 32" overflow="visible" enable-background="new -4 0 32 32"
	 xml:space="preserve">
<defs>
</defs>
<path id="location_1_" fill-rule="evenodd" clip-rule="evenodd" d="M12,32c-0.314,0-0.611-0.148-0.8-0.4L2.58,19.438l-0.315-0.442
	C0.784,16.94,0,14.521,0,12C0,5.383,5.383,0,12,0s12,5.383,12,12c0,2.521-0.784,4.94-2.268,7l-0.419,0.582L12.8,31.6
	C12.611,31.852,12.314,32,12,32z M12,8c-2.206,0-4,1.794-4,4s1.794,4,4,4s4-1.794,4-4S14.206,8,12,8z"/>
</svg>
