<svg xmlns="http://www.w3.org/2000/svg" xmlns:xlink="http://www.w3.org/1999/xlink" version="1.1" id="Layer_1" x="0px" y="0px" viewBox="0 0 100 100" enable-background="new 0 0 100 100" xml:space="preserve" height="100px" width="100px">
<path d="M88.4,31.3c3.9,0,6.7-2.8,6.7-6.6c0-3.8-2.8-6.8-6.7-6.8H11.7c-3.8,0-6.8,3-6.8,6.8c0,3.8,3,6.6,6.8,6.6H88.4z M11.7,68.7  c-3.8,0-6.8,3-6.8,6.7c0,3.7,3,6.8,6.8,6.8h76.8c3.9,0,6.7-3.1,6.7-6.8c0-3.7-2.8-6.7-6.7-6.7H11.7z M11.7,43.2  c-3.8,0-6.8,3-6.8,6.8s3,6.8,6.8,6.8h76.8c3.9,0,6.7-3,6.7-6.8s-2.8-6.8-6.7-6.8H11.7z"/>
</svg>